<?xml version="1.0" encoding="UTF-8"?><svg xmlns="http://www.w3.org/2000/svg" xmlns:xlink="http://www.w3.org/1999/xlink" width="810pt" zoomAndPan="magnify" viewBox="0 0 810 809.999993" height="809.999993pt" preserveAspectRatio="xMidYMid meet" version="1.2"><g xml:id="surface1" id="surface1"><path style=" stroke:none;fill-rule:nonzero;fill:rgb(24.308777%,41.178894%,7.449341%);fill-opacity:1;" d="M 81 389.933594 C 81 219.339844 219.339844 81 389.933594 81 C 560.523438 81 698.867188 219.339844 698.867188 389.933594 C 698.867188 560.523438 560.523438 698.867188 389.933594 698.867188 C 219.339844 698.867188 81 560.523438 81 389.933594 Z M 81 389.933594 "/><path style=" stroke:none;fill-rule:nonzero;fill:rgb(24.308777%,41.178894%,7.449341%);fill-opacity:1;" d="M 608.339844 171.527344 C 729 292.183594 729 487.804688 608.339844 608.339844 C 487.679688 729 292.0625 729 171.527344 608.339844 Z M 608.339844 171.527344 "/><path style=" stroke:none;fill-rule:nonzero;fill:rgb(24.308777%,41.178894%,7.449341%);fill-opacity:1;" d="M 684.171875 484.195312 C 685.292969 480.707031 686.289062 477.097656 687.285156 473.484375 C 686.289062 477.097656 685.292969 480.707031 684.171875 484.195312 "/><path style=" stroke:none;fill-rule:nonzero;fill:rgb(24.308777%,41.178894%,7.449341%);fill-opacity:1;" d="M 687.285156 473.484375 L 519.929688 306.132812 L 481.828125 344.234375 L 455.429688 317.710938 L 433.390625 339.75 L 304.015625 210.375 L 296.046875 207.261719 L 246.363281 256.945312 L 306.257812 316.839844 L 247.605469 375.488281 L 304.886719 432.769531 L 242.253906 495.402344 L 441.484375 694.382812 C 556.167969 675.082031 649.433594 592.777344 684.171875 484.070312 C 685.292969 480.707031 686.289062 477.097656 687.285156 473.484375 "/><path style=" stroke:none;fill-rule:nonzero;fill:rgb(100%,100%,100%);fill-opacity:1;" d="M 548.445312 381.464844 L 548.445312 496.023438 L 482.078125 496.023438 L 482.078125 389.1875 C 482.078125 362.289062 472.488281 343.984375 448.457031 343.984375 C 430.152344 343.984375 419.195312 356.3125 414.339844 368.265625 C 412.59375 372.5 412.097656 378.476562 412.097656 384.453125 L 412.097656 496.023438 L 345.730469 496.023438 C 345.730469 496.023438 346.601562 314.972656 345.730469 296.292969 L 412.097656 296.292969 L 412.097656 324.558594 C 411.972656 324.808594 411.847656 325.058594 411.722656 325.183594 L 412.097656 325.183594 L 412.097656 324.558594 C 420.9375 310.988281 436.628906 291.5625 471.992188 291.5625 C 515.699219 291.5625 548.445312 320.078125 548.445312 381.464844 M 276.246094 199.917969 C 253.585938 199.917969 238.640625 214.859375 238.640625 234.40625 C 238.640625 253.585938 253.085938 268.898438 275.375 268.898438 L 275.875 268.898438 C 299.035156 268.898438 313.476562 253.585938 313.476562 234.40625 C 312.855469 214.859375 298.910156 199.917969 276.246094 199.917969 M 242.5 496.023438 L 308.996094 496.023438 L 308.996094 296.292969 L 242.625 296.292969 L 242.625 496.023438 Z M 242.5 496.023438 "/></g></svg>