<?xml version="1.0" encoding="UTF-8"?><svg xmlns="http://www.w3.org/2000/svg" xmlns:xlink="http://www.w3.org/1999/xlink" width="810" zoomAndPan="magnify" viewBox="0 0 810 809.999993" height="809.999993" preserveAspectRatio="xMidYMid meet" version="1.0"><defs><clipPath id="clip-0"><path d="M 81 81 L 729 81 L 729 729 L 81 729 Z M 81 81 " clip-rule="nonzero"/></clipPath></defs><g clip-path="url(#clip-0)"><path fill="rgb(24.308777%, 41.178894%, 7.449341%)" d="M 729.03125 405.007812 C 729.03125 410.3125 728.902344 415.609375 728.640625 420.90625 C 728.378906 426.203125 727.992188 431.488281 727.472656 436.765625 C 726.949219 442.042969 726.300781 447.304688 725.523438 452.550781 C 724.746094 457.792969 723.839844 463.015625 722.804688 468.21875 C 721.769531 473.417969 720.609375 478.589844 719.320312 483.734375 C 718.03125 488.878906 716.617188 493.988281 715.078125 499.0625 C 713.539062 504.136719 711.878906 509.167969 710.089844 514.160156 C 708.304688 519.152344 706.398438 524.097656 704.367188 529 C 702.339844 533.898438 700.191406 538.742188 697.921875 543.535156 C 695.65625 548.332031 693.273438 553.066406 690.773438 557.742188 C 688.273438 562.417969 685.660156 567.03125 682.933594 571.578125 C 680.207031 576.125 677.371094 580.605469 674.425781 585.015625 C 671.480469 589.421875 668.429688 593.757812 665.269531 598.015625 C 662.109375 602.273438 658.847656 606.453125 655.484375 610.554688 C 652.121094 614.652344 648.660156 618.667969 645.097656 622.59375 C 641.539062 626.523438 637.882812 630.363281 634.132812 634.113281 C 630.382812 637.863281 626.542969 641.515625 622.613281 645.078125 C 618.6875 648.640625 614.671875 652.101562 610.574219 655.464844 C 606.472656 658.828125 602.296875 662.089844 598.035156 665.25 C 593.777344 668.40625 589.441406 671.460938 585.035156 674.40625 C 580.625 677.351562 576.148438 680.1875 571.597656 682.914062 C 567.050781 685.640625 562.4375 688.253906 557.761719 690.753906 C 553.085938 693.253906 548.351562 695.636719 543.558594 697.902344 C 538.765625 700.171875 533.917969 702.316406 529.019531 704.347656 C 524.121094 706.375 519.175781 708.285156 514.179688 710.070312 C 509.1875 711.855469 504.15625 713.519531 499.082031 715.058594 C 494.007812 716.597656 488.898438 718.011719 483.753906 719.300781 C 478.609375 720.589844 473.4375 721.75 468.238281 722.785156 C 463.039062 723.820312 457.8125 724.726562 452.570312 725.503906 C 447.324219 726.28125 442.0625 726.929688 436.785156 727.449219 C 431.507812 727.96875 426.222656 728.359375 420.925781 728.621094 C 415.628906 728.878906 410.332031 729.011719 405.027344 729.011719 C 399.726562 729.011719 394.425781 728.878906 389.128906 728.621094 C 383.832031 728.359375 378.546875 727.96875 373.269531 727.449219 C 367.992188 726.929688 362.730469 726.28125 357.488281 725.503906 C 352.242188 724.726562 347.019531 723.820312 341.820312 722.785156 C 336.617188 721.75 331.445312 720.589844 326.300781 719.300781 C 321.160156 718.011719 316.050781 716.597656 310.976562 715.058594 C 305.902344 713.519531 300.867188 711.855469 295.875 710.070312 C 290.882812 708.285156 285.9375 706.375 281.039062 704.347656 C 276.140625 702.316406 271.292969 700.171875 266.5 697.902344 C 261.707031 695.636719 256.972656 693.253906 252.292969 690.753906 C 247.617188 688.253906 243.003906 685.640625 238.457031 682.914062 C 233.910156 680.1875 229.429688 677.351562 225.023438 674.40625 C 220.613281 671.460938 216.277344 668.40625 212.019531 665.25 C 207.761719 662.089844 203.582031 658.828125 199.484375 655.464844 C 195.382812 652.101562 191.371094 648.640625 187.441406 645.078125 C 183.511719 641.515625 179.671875 637.863281 175.921875 634.113281 C 172.175781 630.363281 168.519531 626.523438 164.957031 622.59375 C 161.398438 618.667969 157.933594 614.652344 154.570312 610.554688 C 151.207031 606.453125 147.945312 602.273438 144.785156 598.015625 C 141.628906 593.757812 138.574219 589.421875 135.628906 585.015625 C 132.683594 580.605469 129.847656 576.125 127.121094 571.578125 C 124.394531 567.03125 121.78125 562.417969 119.285156 557.742188 C 116.785156 553.066406 114.398438 548.332031 112.132812 543.535156 C 109.867188 538.742188 107.71875 533.898438 105.6875 529 C 103.660156 524.097656 101.75 519.152344 99.964844 514.160156 C 98.179688 509.167969 96.515625 504.136719 94.976562 499.0625 C 93.4375 493.988281 92.023438 488.878906 90.734375 483.734375 C 89.445312 478.589844 88.285156 473.417969 87.25 468.21875 C 86.214844 463.015625 85.308594 457.792969 84.53125 452.550781 C 83.753906 447.304688 83.105469 442.042969 82.585938 436.765625 C 82.066406 431.488281 81.675781 426.203125 81.414062 420.90625 C 81.15625 415.609375 81.027344 410.3125 81.027344 405.007812 C 81.027344 399.707031 81.15625 394.40625 81.414062 389.109375 C 81.675781 383.8125 82.066406 378.527344 82.585938 373.25 C 83.105469 367.972656 83.753906 362.710938 84.53125 357.46875 C 85.308594 352.222656 86.214844 347 87.25 341.796875 C 88.285156 336.597656 89.445312 331.425781 90.734375 326.28125 C 92.023438 321.136719 93.4375 316.027344 94.976562 310.953125 C 96.515625 305.878906 98.179688 300.847656 99.964844 295.855469 C 101.75 290.863281 103.660156 285.917969 105.6875 281.015625 C 107.71875 276.117188 109.867188 271.273438 112.132812 266.480469 C 114.398438 261.6875 116.785156 256.949219 119.285156 252.273438 C 121.78125 247.597656 124.394531 242.984375 127.121094 238.4375 C 129.847656 233.890625 132.683594 229.410156 135.628906 225 C 138.574219 220.59375 141.628906 216.257812 144.785156 212 C 147.945312 207.742188 151.207031 203.5625 154.570312 199.464844 C 157.933594 195.363281 161.398438 191.351562 164.957031 187.421875 C 168.519531 183.492188 172.175781 179.652344 175.921875 175.902344 C 179.671875 172.152344 183.511719 168.5 187.441406 164.9375 C 191.371094 161.375 195.382812 157.914062 199.484375 154.550781 C 203.582031 151.1875 207.761719 147.925781 212.019531 144.765625 C 216.277344 141.609375 220.613281 138.554688 225.023438 135.609375 C 229.429688 132.664062 233.910156 129.828125 238.457031 127.101562 C 243.003906 124.375 247.617188 121.761719 252.292969 119.261719 C 256.972656 116.761719 261.707031 114.378906 266.5 112.113281 C 271.292969 109.847656 276.140625 107.699219 281.039062 105.667969 C 285.9375 103.640625 290.882812 101.730469 295.875 99.945312 C 300.867188 98.160156 305.902344 96.496094 310.976562 94.957031 C 316.050781 93.417969 321.160156 92.003906 326.300781 90.714844 C 331.445312 89.425781 336.617188 88.265625 341.820312 87.230469 C 347.019531 86.195312 352.242188 85.289062 357.488281 84.511719 C 362.730469 83.734375 367.992188 83.085938 373.269531 82.566406 C 378.546875 82.046875 383.832031 81.65625 389.128906 81.394531 C 394.425781 81.136719 399.726562 81.003906 405.027344 81.003906 C 410.332031 81.003906 415.628906 81.136719 420.925781 81.394531 C 426.222656 81.65625 431.507812 82.046875 436.785156 82.566406 C 442.0625 83.085938 447.324219 83.734375 452.570312 84.511719 C 457.8125 85.289062 463.039062 86.195312 468.238281 87.230469 C 473.4375 88.265625 478.609375 89.425781 483.753906 90.714844 C 488.898438 92.003906 494.007812 93.417969 499.082031 94.957031 C 504.15625 96.496094 509.1875 98.160156 514.179688 99.945312 C 519.175781 101.730469 524.121094 103.640625 529.019531 105.667969 C 533.917969 107.699219 538.765625 109.847656 543.558594 112.113281 C 548.351562 114.378906 553.085938 116.761719 557.761719 119.261719 C 562.4375 121.761719 567.050781 124.375 571.597656 127.101562 C 576.148438 129.828125 580.625 132.664062 585.035156 135.609375 C 589.441406 138.554688 593.777344 141.609375 598.035156 144.765625 C 602.296875 147.925781 606.472656 151.1875 610.574219 154.550781 C 614.671875 157.914062 618.6875 161.375 622.613281 164.9375 C 626.542969 168.5 630.382812 172.152344 634.132812 175.902344 C 637.882812 179.652344 641.539062 183.492188 645.097656 187.421875 C 648.660156 191.351562 652.121094 195.363281 655.484375 199.464844 C 658.847656 203.5625 662.109375 207.742188 665.269531 212 C 668.429688 216.257812 671.480469 220.59375 674.425781 225 C 677.371094 229.410156 680.207031 233.890625 682.933594 238.4375 C 685.660156 242.984375 688.273438 247.597656 690.773438 252.273438 C 693.273438 256.949219 695.65625 261.6875 697.921875 266.480469 C 700.191406 271.273438 702.339844 276.117188 704.367188 281.015625 C 706.398438 285.917969 708.304688 290.863281 710.089844 295.855469 C 711.878906 300.847656 713.539062 305.878906 715.078125 310.953125 C 716.617188 316.027344 718.03125 321.136719 719.320312 326.28125 C 720.609375 331.425781 721.769531 336.597656 722.804688 341.796875 C 723.839844 347 724.746094 352.222656 725.523438 357.46875 C 726.300781 362.710938 726.949219 367.972656 727.472656 373.25 C 727.992188 378.527344 728.378906 383.8125 728.640625 389.109375 C 728.902344 394.40625 729.03125 399.707031 729.03125 405.007812 Z M 729.03125 405.007812 " fill-opacity="1" fill-rule="nonzero"/></g><path fill="rgb(100%, 100%, 100%)" d="M 486.351562 421.675781 L 495.515625 350.644531 L 425.175781 350.644531 L 425.175781 305.292969 C 425.175781 284.726562 430.910156 270.714844 460.398438 270.714844 L 497.980469 270.691406 L 497.980469 207.167969 C 491.492188 206.300781 469.179688 204.367188 443.183594 204.367188 C 388.945312 204.367188 351.839844 237.476562 351.839844 298.265625 L 351.839844 350.644531 L 290.503906 350.644531 L 290.503906 421.675781 L 351.839844 421.675781 L 351.839844 603.921875 L 425.175781 603.921875 L 425.175781 421.675781 Z M 486.351562 421.675781 " fill-opacity="1" fill-rule="nonzero"/></svg>