<?xml version="1.0" encoding="UTF-8"?><svg xmlns="http://www.w3.org/2000/svg" xmlns:xlink="http://www.w3.org/1999/xlink" width="810pt" zoomAndPan="magnify" viewBox="0 0 810 809.999993" height="809.999993pt" preserveAspectRatio="xMidYMid meet" version="1.2"><defs><clipPath xml:id="clip1" id="clip1"><path d="M 81 81 L 729 81 L 729 729 L 81 729 Z M 81 81 "/></clipPath></defs><g xml:id="surface1" id="surface1"><g clip-rule="nonzero" clip-path="url(#clip1)"><path style=" stroke:none;fill-rule:nonzero;fill:rgb(24.308777%,41.178894%,7.449341%);fill-opacity:1;" d="M 728.941406 404.949219 C 728.941406 583.890625 583.890625 728.941406 404.957031 728.941406 C 226.019531 728.941406 80.964844 583.890625 80.964844 404.949219 C 80.960938 226.015625 226.019531 80.960938 404.957031 80.960938 C 583.890625 80.960938 728.941406 226.015625 728.941406 404.949219 Z M 728.941406 404.949219 "/></g><path style=" stroke:none;fill-rule:nonzero;fill:rgb(100%,100%,100%);fill-opacity:1;" d="M 282.628906 243.574219 L 533.8125 243.574219 C 557.667969 243.574219 577.179688 263.089844 577.179688 286.953125 L 577.179688 538.136719 C 577.179688 561.992188 557.667969 581.492188 533.8125 581.492188 L 282.628906 581.492188 C 258.765625 581.492188 239.234375 561.992188 239.234375 538.136719 L 239.234375 286.953125 C 239.234375 263.089844 258.761719 243.574219 282.628906 243.574219 Z M 485.421875 281.101562 C 477.042969 281.101562 470.210938 287.972656 470.210938 296.339844 L 470.210938 332.730469 C 470.210938 341.117188 477.042969 347.960938 485.421875 347.960938 L 523.609375 347.960938 C 531.972656 347.960938 538.832031 341.117188 538.832031 332.730469 L 538.832031 296.339844 C 538.832031 287.972656 531.976562 281.101562 523.609375 281.101562 Z M 538.972656 386.472656 L 509.238281 386.472656 C 512.058594 395.6875 513.589844 405.390625 513.589844 415.488281 C 513.589844 471.6875 466.539062 517.261719 408.527344 517.261719 C 350.523438 517.261719 303.472656 471.6875 303.472656 415.488281 C 303.472656 405.390625 305.019531 395.691406 307.828125 386.472656 L 276.804688 386.472656 L 276.804688 529.238281 C 276.804688 536.632812 282.839844 542.636719 290.226562 542.636719 L 525.554688 542.636719 C 532.949219 542.636719 538.976562 536.632812 538.976562 529.238281 L 538.976562 386.472656 Z M 408.527344 346.046875 C 371.058594 346.046875 340.667969 375.472656 340.667969 411.816406 C 340.667969 448.121094 371.058594 477.574219 408.527344 477.574219 C 446.011719 477.574219 476.40625 448.121094 476.40625 411.816406 C 476.410156 375.472656 446.011719 346.046875 408.527344 346.046875 Z M 408.527344 346.046875 "/></g></svg>