<?xml version="1.0" encoding="UTF-8"?><svg xmlns="http://www.w3.org/2000/svg" xmlns:xlink="http://www.w3.org/1999/xlink" width="810pt" zoomAndPan="magnify" viewBox="0 0 810 809.999993" height="809.999993pt" preserveAspectRatio="xMidYMid meet" version="1.2"><defs><clipPath xml:id="clip1" id="clip1"><path d="M 85.132812 85.132812 L 728.632812 85.132812 L 728.632812 728.632812 L 85.132812 728.632812 Z M 85.132812 85.132812 "/></clipPath></defs><g xml:id="surface1" id="surface1"><g clip-rule="nonzero" clip-path="url(#clip1)"><path style=" stroke:none;fill-rule:nonzero;fill:rgb(24.308777%,41.178894%,7.449341%);fill-opacity:1;" d="M 728.632812 406.882812 C 728.632812 412.148438 728.503906 417.410156 728.246094 422.671875 C 727.988281 427.929688 727.597656 433.179688 727.082031 438.417969 C 726.566406 443.660156 725.921875 448.882812 725.148438 454.09375 C 724.378906 459.300781 723.476562 464.488281 722.449219 469.652344 C 721.421875 474.816406 720.269531 479.953125 718.988281 485.0625 C 717.710938 490.167969 716.308594 495.242188 714.777344 500.28125 C 713.25 505.320312 711.597656 510.320312 709.824219 515.277344 C 708.050781 520.234375 706.15625 525.144531 704.140625 530.011719 C 702.125 534.875 699.992188 539.6875 697.742188 544.449219 C 695.488281 549.207031 693.121094 553.910156 690.640625 558.554688 C 688.160156 563.199219 685.5625 567.777344 682.855469 572.296875 C 680.148438 576.8125 677.332031 581.257812 674.40625 585.636719 C 671.484375 590.015625 668.453125 594.320312 665.316406 598.550781 C 662.179688 602.777344 658.9375 606.929688 655.597656 611 C 652.257812 615.070312 648.820312 619.054688 645.285156 622.957031 C 641.746094 626.859375 638.117188 630.671875 634.394531 634.394531 C 630.671875 638.117188 626.859375 641.746094 622.957031 645.285156 C 619.054688 648.820312 615.070312 652.257812 611 655.597656 C 606.929688 658.9375 602.777344 662.179688 598.550781 665.316406 C 594.320312 668.453125 590.015625 671.484375 585.636719 674.40625 C 581.257812 677.332031 576.8125 680.148438 572.296875 682.855469 C 567.777344 685.5625 563.199219 688.160156 558.554688 690.640625 C 553.910156 693.125 549.207031 695.488281 544.449219 697.742188 C 539.6875 699.992188 534.875 702.125 530.011719 704.140625 C 525.144531 706.15625 520.234375 708.050781 515.277344 709.824219 C 510.320312 711.597656 505.320312 713.25 500.28125 714.777344 C 495.242188 716.308594 490.167969 717.710938 485.0625 718.988281 C 479.953125 720.269531 474.816406 721.421875 469.652344 722.449219 C 464.488281 723.476562 459.300781 724.378906 454.09375 725.148438 C 448.882812 725.921875 443.660156 726.566406 438.417969 727.082031 C 433.179688 727.597656 427.929688 727.988281 422.671875 728.246094 C 417.410156 728.503906 412.148438 728.632812 406.882812 728.632812 C 401.617188 728.632812 396.355469 728.503906 391.09375 728.246094 C 385.835938 727.988281 380.585938 727.597656 375.34375 727.082031 C 370.105469 726.566406 364.878906 725.921875 359.671875 725.148438 C 354.464844 724.378906 349.277344 723.476562 344.113281 722.449219 C 338.949219 721.421875 333.8125 720.269531 328.703125 718.992188 C 323.597656 717.710938 318.523438 716.308594 313.484375 714.777344 C 308.445312 713.25 303.445312 711.597656 298.488281 709.824219 C 293.53125 708.050781 288.617188 706.15625 283.753906 704.140625 C 278.890625 702.125 274.078125 699.992188 269.316406 697.742188 C 264.558594 695.488281 259.855469 693.125 255.210938 690.640625 C 250.566406 688.160156 245.988281 685.5625 241.46875 682.855469 C 236.953125 680.148438 232.507812 677.332031 228.128906 674.40625 C 223.75 671.484375 219.445312 668.453125 215.214844 665.316406 C 210.988281 662.179688 206.835938 658.9375 202.765625 655.597656 C 198.695312 652.257812 194.710938 648.820312 190.808594 645.285156 C 186.90625 641.746094 183.09375 638.117188 179.371094 634.394531 C 175.648438 630.671875 172.019531 626.859375 168.480469 622.957031 C 164.945312 619.054688 161.507812 615.070312 158.167969 611 C 154.824219 606.929688 151.585938 602.777344 148.449219 598.550781 C 145.3125 594.320312 142.28125 590.015625 139.355469 585.636719 C 136.433594 581.257812 133.617188 576.8125 130.910156 572.296875 C 128.203125 567.777344 125.605469 563.199219 123.125 558.554688 C 120.640625 553.910156 118.277344 549.207031 116.023438 544.449219 C 113.773438 539.6875 111.640625 534.875 109.625 530.011719 C 107.609375 525.144531 105.714844 520.234375 103.941406 515.277344 C 102.167969 510.320312 100.515625 505.320312 98.988281 500.28125 C 97.457031 495.242188 96.054688 490.167969 94.773438 485.0625 C 93.496094 479.953125 92.34375 474.816406 91.316406 469.652344 C 90.289062 464.488281 89.386719 459.300781 88.613281 454.09375 C 87.84375 448.882812 87.199219 443.660156 86.683594 438.417969 C 86.164062 433.179688 85.777344 427.929688 85.519531 422.671875 C 85.261719 417.410156 85.132812 412.148438 85.132812 406.882812 C 85.132812 401.617188 85.261719 396.355469 85.519531 391.09375 C 85.777344 385.835938 86.164062 380.585938 86.683594 375.347656 C 87.199219 370.105469 87.84375 364.882812 88.613281 359.671875 C 89.386719 354.464844 90.289062 349.277344 91.316406 344.113281 C 92.34375 338.949219 93.496094 333.8125 94.773438 328.703125 C 96.054688 323.597656 97.457031 318.523438 98.988281 313.484375 C 100.515625 308.445312 102.167969 303.445312 103.941406 298.488281 C 105.714844 293.53125 107.609375 288.621094 109.625 283.753906 C 111.640625 278.890625 113.773438 274.078125 116.023438 269.316406 C 118.277344 264.558594 120.640625 259.855469 123.125 255.210938 C 125.605469 250.566406 128.203125 245.988281 130.910156 241.46875 C 133.617188 236.953125 136.433594 232.507812 139.355469 228.128906 C 142.28125 223.75 145.3125 219.445312 148.449219 215.214844 C 151.585938 210.988281 154.824219 206.835938 158.167969 202.765625 C 161.507812 198.695312 164.945312 194.710938 168.480469 190.808594 C 172.019531 186.90625 175.648438 183.09375 179.371094 179.371094 C 183.09375 175.648438 186.90625 172.019531 190.808594 168.480469 C 194.710938 164.945312 198.695312 161.507812 202.765625 158.167969 C 206.835938 154.824219 210.988281 151.585938 215.214844 148.449219 C 219.445312 145.3125 223.75 142.28125 228.128906 139.355469 C 232.507812 136.433594 236.953125 133.617188 241.46875 130.910156 C 245.988281 128.203125 250.566406 125.605469 255.210938 123.125 C 259.855469 120.640625 264.558594 118.277344 269.316406 116.023438 C 274.078125 113.773438 278.890625 111.640625 283.753906 109.625 C 288.617188 107.609375 293.53125 105.714844 298.488281 103.941406 C 303.445312 102.167969 308.445312 100.515625 313.484375 98.988281 C 318.523438 97.457031 323.597656 96.054688 328.703125 94.773438 C 333.8125 93.496094 338.949219 92.34375 344.113281 91.316406 C 349.277344 90.289062 354.464844 89.386719 359.671875 88.613281 C 364.878906 87.84375 370.105469 87.199219 375.34375 86.683594 C 380.585938 86.164062 385.835938 85.777344 391.09375 85.519531 C 396.355469 85.261719 401.617188 85.132812 406.882812 85.132812 C 412.148438 85.132812 417.410156 85.261719 422.671875 85.519531 C 427.929688 85.777344 433.179688 86.164062 438.417969 86.683594 C 443.660156 87.199219 448.882812 87.84375 454.09375 88.613281 C 459.300781 89.386719 464.488281 90.289062 469.652344 91.316406 C 474.816406 92.34375 479.953125 93.496094 485.0625 94.773438 C 490.167969 96.054688 495.242188 97.457031 500.28125 98.988281 C 505.320312 100.515625 510.320312 102.167969 515.277344 103.941406 C 520.234375 105.714844 525.144531 107.609375 530.011719 109.625 C 534.875 111.640625 539.6875 113.773438 544.449219 116.023438 C 549.207031 118.277344 553.910156 120.640625 558.554688 123.125 C 563.199219 125.605469 567.777344 128.203125 572.296875 130.910156 C 576.8125 133.617188 581.257812 136.433594 585.636719 139.355469 C 590.015625 142.28125 594.320312 145.3125 598.550781 148.449219 C 602.777344 151.585938 606.929688 154.824219 611 158.167969 C 615.070312 161.507812 619.054688 164.945312 622.957031 168.480469 C 626.859375 172.019531 630.671875 175.648438 634.394531 179.371094 C 638.117188 183.09375 641.746094 186.90625 645.285156 190.808594 C 648.820312 194.710938 652.257812 198.695312 655.597656 202.765625 C 658.9375 206.835938 662.179688 210.988281 665.316406 215.214844 C 668.453125 219.445312 671.484375 223.75 674.40625 228.128906 C 677.332031 232.507812 680.148438 236.953125 682.855469 241.46875 C 685.5625 245.988281 688.160156 250.566406 690.640625 255.210938 C 693.121094 259.855469 695.488281 264.558594 697.742188 269.316406 C 699.992188 274.078125 702.125 278.890625 704.140625 283.753906 C 706.15625 288.621094 708.050781 293.53125 709.824219 298.488281 C 711.597656 303.445312 713.25 308.445312 714.777344 313.484375 C 716.308594 318.523438 717.710938 323.597656 718.988281 328.703125 C 720.269531 333.8125 721.421875 338.949219 722.449219 344.113281 C 723.476562 349.277344 724.378906 354.464844 725.148438 359.671875 C 725.921875 364.882812 726.566406 370.105469 727.082031 375.347656 C 727.597656 380.585938 727.988281 385.835938 728.246094 391.09375 C 728.503906 396.355469 728.632812 401.617188 728.632812 406.882812 Z M 728.632812 406.882812 "/></g><path style=" stroke:none;fill-rule:nonzero;fill:rgb(100%,100%,100%);fill-opacity:1;" d="M 348.003906 576.605469 C 490.699219 576.605469 568.722656 458.363281 568.722656 355.886719 C 568.722656 352.507812 568.722656 349.128906 568.5625 345.910156 C 583.683594 334.972656 596.875 321.296875 607.332031 305.691406 C 593.496094 311.804688 578.535156 315.988281 562.769531 317.917969 C 578.859375 308.265625 591.085938 293.144531 596.875 274.964844 C 581.914062 283.8125 565.34375 290.25 547.648438 293.789062 C 533.492188 278.664062 513.382812 269.335938 491.019531 269.335938 C 448.226562 269.335938 413.476562 304.082031 413.476562 346.875 C 413.476562 352.988281 414.121094 358.941406 415.570312 364.574219 C 351.058594 361.355469 293.949219 330.46875 255.660156 283.492188 C 249.0625 294.914062 245.203125 308.265625 245.203125 322.421875 C 245.203125 349.289062 258.878906 373.097656 279.792969 386.933594 C 267.082031 386.613281 255.175781 383.074219 244.71875 377.28125 C 244.71875 377.601562 244.71875 377.925781 244.71875 378.246094 C 244.71875 415.890625 271.425781 447.101562 306.980469 454.339844 C 300.542969 456.109375 293.625 457.074219 286.546875 457.074219 C 281.5625 457.074219 276.734375 456.59375 271.910156 455.628906 C 281.722656 486.515625 310.359375 508.878906 344.300781 509.519531 C 317.757812 530.273438 284.296875 542.660156 247.9375 542.660156 C 241.664062 542.660156 235.550781 542.339844 229.4375 541.535156 C 263.382812 563.734375 304.246094 576.605469 348.003906 576.605469 "/></g></svg>